<mxfile host="app.diagrams.net" modified="2023-05-12T16:55:35.686Z" agent="Mozilla/5.0 (Windows NT 10.0; Win64; x64) AppleWebKit/537.36 (KHTML, like Gecko) Chrome/113.0.0.0 Safari/537.36" etag="zY_45q7Am-bysVssBzUK" version="21.2.9" type="device">
  <diagram name="Page-1" id="2cc2dc42-3aac-f2a9-1cec-7a8b7cbee084">
    <mxGraphModel dx="1241" dy="711" grid="1" gridSize="10" guides="1" tooltips="1" connect="1" arrows="1" fold="1" page="1" pageScale="1" pageWidth="1100" pageHeight="850" background="none" math="0" shadow="0">
      <root>
        <mxCell id="0" />
        <mxCell id="1" parent="0" />
        <mxCell id="7026571954dc6520-1" value="" style="strokeWidth=1;shadow=0;dashed=0;align=center;html=1;shape=mxgraph.mockup.containers.browserWindow;rSize=0;strokeColor=#666666;mainText=,;recursiveResize=0;rounded=0;labelBackgroundColor=none;fontFamily=Verdana;fontSize=12" parent="1" vertex="1">
          <mxGeometry x="30" y="21" width="1050" height="820" as="geometry" />
        </mxCell>
        <mxCell id="FAUpBP3DlZ3lO1FXphOJ-49" value="" style="html=1;dashed=0;whiteSpace=wrap;" vertex="1" parent="7026571954dc6520-1">
          <mxGeometry x="10" y="159" width="1030" height="541" as="geometry" />
        </mxCell>
        <mxCell id="7026571954dc6520-2" value="User Account" style="strokeWidth=1;shadow=0;dashed=0;align=center;html=1;shape=mxgraph.mockup.containers.anchor;fontSize=17;fontColor=#666666;align=left;" parent="7026571954dc6520-1" vertex="1">
          <mxGeometry x="60" y="12" width="110" height="26" as="geometry" />
        </mxCell>
        <mxCell id="7026571954dc6520-3" value="https://www.eduteach.com/useraccount" style="strokeWidth=1;shadow=0;dashed=0;align=center;html=1;shape=mxgraph.mockup.containers.anchor;rSize=0;fontSize=17;fontColor=#666666;align=left;" parent="7026571954dc6520-1" vertex="1">
          <mxGeometry x="130" y="60" width="480" height="26" as="geometry" />
        </mxCell>
        <mxCell id="FAUpBP3DlZ3lO1FXphOJ-2" value="" style="verticalLabelPosition=bottom;shadow=0;dashed=0;align=center;html=1;verticalAlign=top;strokeWidth=1;shape=mxgraph.mockup.containers.userMale;strokeColor=#666666;strokeColor2=#008cff;" vertex="1" parent="7026571954dc6520-1">
          <mxGeometry x="775" y="240" width="210" height="210" as="geometry" />
        </mxCell>
        <mxCell id="FAUpBP3DlZ3lO1FXphOJ-10" value="" style="strokeWidth=1;html=1;shadow=0;dashed=0;shape=mxgraph.android.rrect;rSize=0;fillColor=#444444;strokeColor=none;" vertex="1" parent="7026571954dc6520-1">
          <mxGeometry x="40" y="241" width="640" height="30" as="geometry" />
        </mxCell>
        <mxCell id="FAUpBP3DlZ3lO1FXphOJ-11" value="Genaral" style="strokeWidth=1;html=1;shadow=0;dashed=0;shape=mxgraph.android.anchor;fontStyle=1;fontColor=#ffffff;" vertex="1" parent="FAUpBP3DlZ3lO1FXphOJ-10">
          <mxGeometry width="160" height="30" as="geometry" />
        </mxCell>
        <mxCell id="FAUpBP3DlZ3lO1FXphOJ-12" value="Notifications" style="strokeWidth=1;html=1;shadow=0;dashed=0;shape=mxgraph.android.rrect;rSize=0;fontStyle=1;fillColor=none;strokeColor=none;fontColor=#ffffff;" vertex="1" parent="FAUpBP3DlZ3lO1FXphOJ-10">
          <mxGeometry x="160" width="160" height="30" as="geometry" />
        </mxCell>
        <mxCell id="FAUpBP3DlZ3lO1FXphOJ-13" value="" style="strokeWidth=1;html=1;shadow=0;dashed=0;shape=mxgraph.android.rrect;rSize=0;fillColor=#33b5e5;strokeColor=none;" vertex="1" parent="FAUpBP3DlZ3lO1FXphOJ-12">
          <mxGeometry x="-160" y="27" width="160" height="3" as="geometry" />
        </mxCell>
        <mxCell id="FAUpBP3DlZ3lO1FXphOJ-14" value="Customize" style="strokeWidth=1;html=1;shadow=0;dashed=0;shape=mxgraph.android.anchor;fontStyle=1;fontColor=#ffffff;" vertex="1" parent="FAUpBP3DlZ3lO1FXphOJ-10">
          <mxGeometry x="320" width="160" height="30" as="geometry" />
        </mxCell>
        <mxCell id="FAUpBP3DlZ3lO1FXphOJ-15" value="Settings" style="strokeWidth=1;html=1;shadow=0;dashed=0;shape=mxgraph.android.anchor;fontStyle=1;fontColor=#ffffff;" vertex="1" parent="FAUpBP3DlZ3lO1FXphOJ-10">
          <mxGeometry x="480" width="160" height="30" as="geometry" />
        </mxCell>
        <mxCell id="FAUpBP3DlZ3lO1FXphOJ-17" value="&lt;b&gt;&lt;font style=&quot;font-size: 14px;&quot;&gt;Change profile picture&lt;/font&gt;&lt;/b&gt;" style="rounded=1;html=1;shadow=0;dashed=0;whiteSpace=wrap;fontSize=10;fillColor=#666666;align=center;strokeColor=#4D4D4D;fontColor=#ffffff;" vertex="1" parent="7026571954dc6520-1">
          <mxGeometry x="775" y="445" width="245" height="36.88" as="geometry" />
        </mxCell>
        <mxCell id="FAUpBP3DlZ3lO1FXphOJ-18" value="" style="html=1;dashed=0;whiteSpace=wrap;shape=partialRectangle;right=0;left=0;" vertex="1" parent="7026571954dc6520-1">
          <mxGeometry x="70" y="340" width="540" height="41" as="geometry" />
        </mxCell>
        <mxCell id="FAUpBP3DlZ3lO1FXphOJ-46" value="" style="html=1;dashed=0;whiteSpace=wrap;shape=partialRectangle;right=0;left=0;" vertex="1" parent="7026571954dc6520-1">
          <mxGeometry x="70" y="420" width="540" height="41" as="geometry" />
        </mxCell>
        <mxCell id="FAUpBP3DlZ3lO1FXphOJ-53" value="&lt;b&gt;&lt;font style=&quot;font-size: 15px;&quot;&gt;Login activities&lt;/font&gt;&lt;/b&gt;" style="rounded=0;whiteSpace=wrap;html=1;" vertex="1" parent="7026571954dc6520-1">
          <mxGeometry x="40" y="509" width="300" height="151" as="geometry" />
        </mxCell>
        <mxCell id="FAUpBP3DlZ3lO1FXphOJ-54" value="&lt;span style=&quot;font-size: 15px;&quot;&gt;&lt;b&gt;Courses/Modules&lt;/b&gt;&lt;/span&gt;" style="rounded=0;whiteSpace=wrap;html=1;" vertex="1" parent="7026571954dc6520-1">
          <mxGeometry x="380" y="509" width="300" height="151" as="geometry" />
        </mxCell>
        <mxCell id="FAUpBP3DlZ3lO1FXphOJ-55" value="" style="dashed=0;outlineConnect=0;html=1;align=center;labelPosition=center;verticalLabelPosition=bottom;verticalAlign=top;shape=mxgraph.webicons.github;gradientColor=#DFDEDE;aspect=fixed;" vertex="1" parent="7026571954dc6520-1">
          <mxGeometry x="820" y="620" width="40" height="40" as="geometry" />
        </mxCell>
        <mxCell id="FAUpBP3DlZ3lO1FXphOJ-56" value="" style="dashed=0;outlineConnect=0;html=1;align=center;labelPosition=center;verticalLabelPosition=bottom;verticalAlign=top;shape=mxgraph.webicons.facebook;fillColor=#6294E4;gradientColor=#1A2665" vertex="1" parent="7026571954dc6520-1">
          <mxGeometry x="980" y="550" width="40" height="40" as="geometry" />
        </mxCell>
        <mxCell id="FAUpBP3DlZ3lO1FXphOJ-57" value="" style="dashed=0;outlineConnect=0;html=1;align=center;labelPosition=center;verticalLabelPosition=bottom;verticalAlign=top;shape=mxgraph.webicons.linkedin;fillColor=#0095DB;gradientColor=#006391;aspect=fixed;" vertex="1" parent="7026571954dc6520-1">
          <mxGeometry x="760" y="620" width="40" height="40" as="geometry" />
        </mxCell>
        <mxCell id="FAUpBP3DlZ3lO1FXphOJ-58" value="" style="dashed=0;outlineConnect=0;html=1;align=center;labelPosition=center;verticalLabelPosition=bottom;verticalAlign=top;shape=mxgraph.webicons.messenger_3;fillColor=#09BEFC;gradientColor=#0060FA;aspect=fixed;" vertex="1" parent="7026571954dc6520-1">
          <mxGeometry x="896.3" y="620" width="40" height="40" as="geometry" />
        </mxCell>
        <mxCell id="FAUpBP3DlZ3lO1FXphOJ-59" value="" style="dashed=0;outlineConnect=0;html=1;align=center;labelPosition=center;verticalLabelPosition=bottom;verticalAlign=top;shape=mxgraph.webicons.whatsapp;fillColor=#4FE238;gradientColor=#138709" vertex="1" parent="7026571954dc6520-1">
          <mxGeometry x="896.3" y="550" width="40" height="40" as="geometry" />
        </mxCell>
        <mxCell id="FAUpBP3DlZ3lO1FXphOJ-60" value="" style="dashed=0;outlineConnect=0;html=1;align=center;labelPosition=center;verticalLabelPosition=bottom;verticalAlign=top;shape=mxgraph.webicons.twitter;fillColor=#49EAF7;gradientColor=#137BD0;aspect=fixed;" vertex="1" parent="7026571954dc6520-1">
          <mxGeometry x="980" y="620" width="40" height="40" as="geometry" />
        </mxCell>
        <mxCell id="FAUpBP3DlZ3lO1FXphOJ-61" value="" style="dashed=0;outlineConnect=0;html=1;align=center;labelPosition=center;verticalLabelPosition=bottom;verticalAlign=top;shape=mxgraph.webicons.phone;fillColor=#76F21E;gradientColor=#079704;aspect=fixed;" vertex="1" parent="7026571954dc6520-1">
          <mxGeometry x="760" y="550" width="40" height="40" as="geometry" />
        </mxCell>
        <mxCell id="FAUpBP3DlZ3lO1FXphOJ-63" value="" style="dashed=0;outlineConnect=0;html=1;align=center;labelPosition=center;verticalLabelPosition=bottom;verticalAlign=top;shape=mxgraph.webicons.google;gradientColor=#DFDEDE;aspect=fixed;" vertex="1" parent="7026571954dc6520-1">
          <mxGeometry x="820" y="550" width="40" height="40" as="geometry" />
        </mxCell>
        <mxCell id="LoF_D8ftlG8vqLDM8Cvz-1" value="&lt;font style=&quot;font-size: 7px;&quot;&gt;Created by MLB_11.01_9&lt;/font&gt;" style="text;html=1;strokeColor=none;fillColor=none;align=center;verticalAlign=middle;whiteSpace=wrap;rounded=0;" parent="1" vertex="1">
          <mxGeometry x="460" y="810" width="181" height="30" as="geometry" />
        </mxCell>
        <mxCell id="LoF_D8ftlG8vqLDM8Cvz-2" value="" style="rounded=1;whiteSpace=wrap;html=1;" parent="1" vertex="1">
          <mxGeometry x="35" y="137" width="1040" height="40" as="geometry" />
        </mxCell>
        <mxCell id="LoF_D8ftlG8vqLDM8Cvz-3" value="" style="verticalLabelPosition=bottom;shadow=0;dashed=0;align=center;html=1;verticalAlign=top;strokeWidth=1;shape=mxgraph.mockup.graphics.simpleIcon;strokeColor=#999999;" parent="1" vertex="1">
          <mxGeometry x="56" y="142" width="50" height="30" as="geometry" />
        </mxCell>
        <mxCell id="796VdTpRs6x_GsB5o8sN-1" value="" style="rounded=0;whiteSpace=wrap;html=1;fillColor=#647687;strokeColor=#314354;fontColor=#ffffff;" parent="1" vertex="1">
          <mxGeometry x="30" y="730" width="1050" height="110" as="geometry" />
        </mxCell>
        <mxCell id="796VdTpRs6x_GsB5o8sN-2" value="" style="dashed=0;outlineConnect=0;html=1;align=center;labelPosition=center;verticalLabelPosition=bottom;verticalAlign=top;shape=mxgraph.weblogos.app_store;fillColor=#000000;strokeColor=none" parent="1" vertex="1">
          <mxGeometry x="771.8" y="781.85" width="61.2" height="20" as="geometry" />
        </mxCell>
        <mxCell id="796VdTpRs6x_GsB5o8sN-3" value="" style="dashed=0;outlineConnect=0;html=1;align=center;labelPosition=center;verticalLabelPosition=bottom;verticalAlign=top;shape=mxgraph.weblogos.app_store_iphone;fillColor=#75797C;strokeColor=none" parent="1" vertex="1">
          <mxGeometry x="842.8" y="781.85" width="61.2" height="20" as="geometry" />
        </mxCell>
        <mxCell id="796VdTpRs6x_GsB5o8sN-4" value="" style="dashed=0;outlineConnect=0;html=1;align=center;labelPosition=center;verticalLabelPosition=bottom;verticalAlign=top;shape=mxgraph.webicons.google_play;fillColor=#000000" parent="1" vertex="1">
          <mxGeometry x="688.8" y="781.25" width="69.4" height="20.6" as="geometry" />
        </mxCell>
        <mxCell id="796VdTpRs6x_GsB5o8sN-5" value="&lt;font style=&quot;font-size: 11px;&quot; color=&quot;#ffffff&quot;&gt;Get us on&lt;/font&gt;" style="text;html=1;strokeColor=none;fillColor=none;align=center;verticalAlign=middle;whiteSpace=wrap;rounded=0;" parent="1" vertex="1">
          <mxGeometry x="660" y="751.25" width="60" height="30" as="geometry" />
        </mxCell>
        <mxCell id="796VdTpRs6x_GsB5o8sN-6" value="&lt;p style=&quot;line-height: 90%;&quot;&gt;&lt;/p&gt;&lt;div style=&quot;text-align: left; line-height: 40%; font-size: 11px;&quot;&gt;&lt;p style=&quot;margin: 0px 0px 10px; color: rgb(189, 195, 199); font-family: &amp;quot;Open Sans&amp;quot;, sans-serif; font-size: 14px; line-height: 40%;&quot; dir=&quot;ltr&quot;&gt;&lt;span style=&quot;background-color: rgb(100, 118, 135);&quot;&gt;DO YOU NEED ANY&lt;/span&gt;&lt;/p&gt;&lt;p style=&quot;margin: 0px 0px 10px; color: rgb(189, 195, 199); font-family: &amp;quot;Open Sans&amp;quot;, sans-serif; font-size: 2rem; line-height: 40%;&quot;&gt;&lt;span style=&quot;font-weight: 700; font-size: 20px; background-color: rgb(100, 118, 135);&quot;&gt;SUPPORT ?&lt;/span&gt;&lt;/p&gt;&lt;/div&gt;&lt;p&gt;&lt;/p&gt;" style="text;html=1;strokeColor=none;fillColor=none;align=center;verticalAlign=middle;whiteSpace=wrap;rounded=0;" parent="1" vertex="1">
          <mxGeometry x="110" y="733.5" width="160" height="71.5" as="geometry" />
        </mxCell>
        <mxCell id="796VdTpRs6x_GsB5o8sN-7" value="" style="shape=image;html=1;verticalAlign=top;verticalLabelPosition=bottom;labelBackgroundColor=#ffffff;imageAspect=0;aspect=fixed;image=https://cdn1.iconfinder.com/data/icons/logos-brands-1/24/logo_brand_brands_logos_microsoft_store_windows-128.png" parent="1" vertex="1">
          <mxGeometry x="911" y="774.25" width="30" height="30" as="geometry" />
        </mxCell>
        <mxCell id="796VdTpRs6x_GsB5o8sN-8" value="" style="sketch=0;pointerEvents=1;shadow=0;dashed=0;html=1;strokeColor=none;fillColor=#505050;labelPosition=center;verticalLabelPosition=bottom;verticalAlign=top;outlineConnect=0;align=center;shape=mxgraph.office.concepts.calendar;" parent="1" vertex="1">
          <mxGeometry x="978" y="738" width="89" height="72" as="geometry" />
        </mxCell>
        <mxCell id="796VdTpRs6x_GsB5o8sN-9" value="&lt;p style=&quot;line-height: 90%;&quot;&gt;Visit Support&lt;br&gt;&lt;u&gt;support.eduteach.com&lt;/u&gt;&lt;/p&gt;" style="fillColor=none;strokeColor=none;html=1;fontColor=#0057D8;align=left;fontSize=12;sketch=0;" parent="1" vertex="1">
          <mxGeometry x="144" y="784.85" width="125" height="33" as="geometry" />
        </mxCell>
        <mxCell id="796VdTpRs6x_GsB5o8sN-10" value="" style="html=1;shadow=0;dashed=0;shape=mxgraph.atlassian.checkbox;fillColor=#008465;strokeColor=none;html=1;sketch=0;" parent="1" vertex="1">
          <mxGeometry x="126" y="794.85" width="14" height="14" as="geometry" />
        </mxCell>
        <mxCell id="796VdTpRs6x_GsB5o8sN-11" value="" style="sketch=0;pointerEvents=1;shadow=0;dashed=0;html=1;strokeColor=none;fillColor=#505050;labelPosition=center;verticalLabelPosition=bottom;verticalAlign=top;outlineConnect=0;align=center;shape=mxgraph.office.users.call_center_agent;" parent="1" vertex="1">
          <mxGeometry x="50" y="738.37" width="60" height="71.75" as="geometry" />
        </mxCell>
        <mxCell id="796VdTpRs6x_GsB5o8sN-12" value="" style="shape=mxgraph.signs.tech.telephone_3;html=1;pointerEvents=1;fillColor=#000000;strokeColor=none;verticalLabelPosition=bottom;verticalAlign=top;align=center;" parent="1" vertex="1">
          <mxGeometry x="277" y="755.25" width="29.31" height="40" as="geometry" />
        </mxCell>
        <mxCell id="796VdTpRs6x_GsB5o8sN-13" value="&lt;b&gt;&lt;font style=&quot;font-size: 16px;&quot;&gt;+94 71 234 5678&amp;nbsp;&lt;/font&gt;&lt;/b&gt;" style="text;html=1;strokeColor=none;fillColor=none;align=center;verticalAlign=middle;whiteSpace=wrap;rounded=0;" parent="1" vertex="1">
          <mxGeometry x="287" y="757.37" width="170" height="30" as="geometry" />
        </mxCell>
        <mxCell id="796VdTpRs6x_GsB5o8sN-14" value="" style="rounded=0;whiteSpace=wrap;html=1;fillColor=#000000;fontColor=#ffffff;strokeColor=#432D57;" parent="1" vertex="1">
          <mxGeometry x="30" y="814" width="1050" height="26" as="geometry" />
        </mxCell>
        <mxCell id="796VdTpRs6x_GsB5o8sN-15" value="&lt;font color=&quot;#ffffff&quot; style=&quot;font-size: 7px;&quot;&gt;Created by MLB_11.01_9&lt;/font&gt;" style="text;html=1;strokeColor=none;fillColor=none;align=center;verticalAlign=middle;whiteSpace=wrap;rounded=0;" parent="1" vertex="1">
          <mxGeometry x="460" y="810" width="181" height="30" as="geometry" />
        </mxCell>
        <mxCell id="796VdTpRs6x_GsB5o8sN-16" value="" style="shape=image;html=1;verticalAlign=top;verticalLabelPosition=bottom;labelBackgroundColor=#ffffff;imageAspect=0;aspect=fixed;image=https://cdn2.iconfinder.com/data/icons/social-media-2421/512/Telegram-128.png;imageBackground=default;" parent="1" vertex="1">
          <mxGeometry x="1021" y="817" width="20" height="20" as="geometry" />
        </mxCell>
        <mxCell id="796VdTpRs6x_GsB5o8sN-17" value="" style="shape=image;html=1;verticalAlign=top;verticalLabelPosition=bottom;labelBackgroundColor=#ffffff;imageAspect=0;aspect=fixed;image=https://cdn3.iconfinder.com/data/icons/picons-social/57/46-facebook-128.png;imageBackground=default;" parent="1" vertex="1">
          <mxGeometry x="990" y="817.85" width="20" height="20" as="geometry" />
        </mxCell>
        <mxCell id="796VdTpRs6x_GsB5o8sN-18" value="" style="shape=image;html=1;verticalAlign=top;verticalLabelPosition=bottom;labelBackgroundColor=#ffffff;imageAspect=0;aspect=fixed;image=https://cdn1.iconfinder.com/data/icons/social-media-circle-7/512/Circled_Twitter_svg-128.png;imageBackground=default;" parent="1" vertex="1">
          <mxGeometry x="959" y="817.85" width="20" height="20" as="geometry" />
        </mxCell>
        <mxCell id="796VdTpRs6x_GsB5o8sN-19" value="" style="shape=image;html=1;verticalAlign=top;verticalLabelPosition=bottom;labelBackgroundColor=#ffffff;imageAspect=0;aspect=fixed;image=https://cdn4.iconfinder.com/data/icons/ionicons/512/icon-social-github-128.png;imageBackground=default;" parent="1" vertex="1">
          <mxGeometry x="1051" y="817.85" width="20" height="20" as="geometry" />
        </mxCell>
        <mxCell id="796VdTpRs6x_GsB5o8sN-20" value="" style="shape=image;html=1;verticalAlign=top;verticalLabelPosition=bottom;labelBackgroundColor=#ffffff;imageAspect=0;aspect=fixed;image=https://cdn0.iconfinder.com/data/icons/eon-social-media-contact-info-2/32/in_linkedin_portfolio_social_media-128.png;imageBackground=default;" parent="1" vertex="1">
          <mxGeometry x="930" y="818" width="20" height="20" as="geometry" />
        </mxCell>
        <mxCell id="796VdTpRs6x_GsB5o8sN-21" value="" style="shape=image;html=1;verticalAlign=top;verticalLabelPosition=bottom;labelBackgroundColor=#ffffff;imageAspect=0;aspect=fixed;image=https://cdn0.iconfinder.com/data/icons/social-media-and-logos-12/32/Google_Google-128.png;imageBackground=default;" parent="1" vertex="1">
          <mxGeometry x="899" y="818" width="20" height="20" as="geometry" />
        </mxCell>
        <mxCell id="796VdTpRs6x_GsB5o8sN-22" value="&lt;font color=&quot;#ffffff&quot;&gt;https://www.eduteach.com&lt;/font&gt;" style="text;html=1;strokeColor=none;fillColor=none;align=center;verticalAlign=middle;whiteSpace=wrap;rounded=0;" parent="1" vertex="1">
          <mxGeometry x="40" y="812" width="170" height="30" as="geometry" />
        </mxCell>
        <mxCell id="796VdTpRs6x_GsB5o8sN-23" value="" style="shape=mxgraph.signs.tech.mail;html=1;pointerEvents=1;fillColor=#647687;strokeColor=#314354;verticalLabelPosition=bottom;verticalAlign=top;align=center;fontColor=#ffffff;" parent="1" vertex="1">
          <mxGeometry x="210" y="818" width="18" height="17" as="geometry" />
        </mxCell>
        <mxCell id="796VdTpRs6x_GsB5o8sN-24" value="&lt;font color=&quot;#ffffff&quot;&gt;info@eduteach.lk&lt;/font&gt;" style="text;html=1;strokeColor=none;fillColor=none;align=center;verticalAlign=middle;whiteSpace=wrap;rounded=0;" parent="1" vertex="1">
          <mxGeometry x="196" y="814" width="170" height="30" as="geometry" />
        </mxCell>
        <mxCell id="796VdTpRs6x_GsB5o8sN-25" value="" style="html=1;dashed=0;aspect=fixed;verticalLabelPosition=bottom;verticalAlign=top;align=center;shape=mxgraph.gmdl.bookmark;strokeColor=none;fillColor=#737373;shadow=0;sketch=0;" parent="1" vertex="1">
          <mxGeometry x="38" y="818" width="9" height="15" as="geometry" />
        </mxCell>
        <mxCell id="yMnLHjxeKOQUSBEiQ_IM-1" value="&lt;font size=&quot;1&quot; face=&quot;Comic Sans MS&quot; style=&quot;&quot;&gt;&lt;span style=&quot;font-size: 11px;&quot;&gt;&amp;nbsp; &amp;nbsp; &amp;nbsp; &amp;nbsp;Home&amp;nbsp; &amp;nbsp; My Courses&amp;nbsp; &amp;nbsp;Progress&amp;nbsp; &amp;nbsp; Contact Us&amp;nbsp; &amp;nbsp; &amp;nbsp;Help &amp;amp; Support&lt;/span&gt;&lt;/font&gt;" style="text;html=1;strokeColor=none;fillColor=none;align=right;verticalAlign=middle;whiteSpace=wrap;rounded=0;" parent="1" vertex="1">
          <mxGeometry x="680" y="142" width="382" height="30" as="geometry" />
        </mxCell>
        <mxCell id="FAUpBP3DlZ3lO1FXphOJ-1" value="&lt;font size=&quot;1&quot; face=&quot;Comic Sans MS&quot; style=&quot;&quot;&gt;&lt;b style=&quot;font-size: 22px;&quot;&gt;EduTeach&lt;/b&gt;&lt;/font&gt;" style="text;html=1;strokeColor=none;fillColor=none;align=center;verticalAlign=middle;whiteSpace=wrap;rounded=0;" vertex="1" parent="1">
          <mxGeometry x="106" y="142" width="160" height="30" as="geometry" />
        </mxCell>
        <mxCell id="FAUpBP3DlZ3lO1FXphOJ-50" value="&lt;b style=&quot;border-color: var(--border-color);&quot;&gt;&lt;font style=&quot;border-color: var(--border-color); font-size: 18px;&quot;&gt;User Account&lt;/font&gt;&lt;/b&gt;" style="rounded=0;whiteSpace=wrap;html=1;" vertex="1" parent="1">
          <mxGeometry x="32" y="198" width="218" height="50" as="geometry" />
        </mxCell>
        <mxCell id="FAUpBP3DlZ3lO1FXphOJ-52" value="" style="html=1;verticalLabelPosition=bottom;align=center;labelBackgroundColor=#ffffff;verticalAlign=top;strokeWidth=2;strokeColor=#0080F0;shadow=0;dashed=0;shape=mxgraph.ios7.icons.user;" vertex="1" parent="1">
          <mxGeometry x="44" y="208" width="30" height="30" as="geometry" />
        </mxCell>
      </root>
    </mxGraphModel>
  </diagram>
</mxfile>
